<svg width="20" height="20" viewBox="0 0 20 20" fill="none" xmlns="http://www.w3.org/2000/svg">
<rect x="0.5" y="0.5" width="19" height="19" rx="9.5" fill="white"/>
<rect x="0.5" y="0.5" width="19" height="19" rx="9.5" stroke="white" stroke-linecap="round"/>
<path d="M11.2487 14.4793H8.7487C6.4862 14.4793 5.51953 13.5127 5.51953 11.2502V8.75016C5.51953 6.48766 6.4862 5.521 8.7487 5.521H11.2487C13.5112 5.521 14.4779 6.48766 14.4779 8.75016V11.2502C14.4779 13.5127 13.5112 14.4793 11.2487 14.4793ZM8.7487 6.146C6.82786 6.146 6.14453 6.82933 6.14453 8.75016V11.2502C6.14453 13.171 6.82786 13.8543 8.7487 13.8543H11.2487C13.1695 13.8543 13.8529 13.171 13.8529 11.2502V8.75016C13.8529 6.82933 13.1695 6.146 11.2487 6.146H8.7487Z" fill="#F47500"/>
<path d="M9.24219 12.4585C9.16302 12.4585 9.08385 12.4293 9.02135 12.3668L7.75469 11.1002C7.63385 10.9793 7.63385 10.7793 7.75469 10.6585C7.87552 10.5377 8.07552 10.5377 8.19635 10.6585L9.46302 11.9252C9.58385 12.046 9.58385 12.246 9.46302 12.3668C9.40469 12.4293 9.32552 12.4585 9.24219 12.4585Z" fill="#F47500"/>
<path d="M9.24316 12.4582C9.07233 12.4582 8.93066 12.3165 8.93066 12.1457V7.854C8.93066 7.68317 9.07233 7.5415 9.24316 7.5415C9.414 7.5415 9.55566 7.68317 9.55566 7.854V12.1498C9.55566 12.3207 9.41816 12.4582 9.24316 12.4582Z" fill="#F47500"/>
<path d="M12.0254 9.43311C11.9462 9.43311 11.8671 9.40394 11.8046 9.34144L10.5379 8.07477C10.4171 7.95394 10.4171 7.75394 10.5379 7.63311C10.6587 7.51227 10.8587 7.51227 10.9796 7.63311L12.2462 8.89977C12.3671 9.02061 12.3671 9.2206 12.2462 9.34144C12.1837 9.39977 12.1046 9.43311 12.0254 9.43311Z" fill="#F47500"/>
<path d="M10.7568 12.4582C10.586 12.4582 10.4443 12.3165 10.4443 12.1457V7.854C10.4443 7.68317 10.586 7.5415 10.7568 7.5415C10.9277 7.5415 11.0693 7.68317 11.0693 7.854V12.1498C11.0693 12.3207 10.9277 12.4582 10.7568 12.4582Z" fill="#F47500"/>
</svg>
