<svg width="20" height="20" viewBox="0 0 20 20" fill="none" xmlns="http://www.w3.org/2000/svg">
<g clip-path="url(#clip0_2006_9518)">
<path d="M8.53583 13.595L5 10.0583L6.17833 8.87996L8.53583 11.2366L13.2492 6.52246L14.4283 7.70163L8.53583 13.595Z" fill="white"/>
<path fill-rule="evenodd" clip-rule="evenodd" d="M0.833984 9.99992C0.833984 4.93742 4.93815 0.833252 10.0007 0.833252C15.0632 0.833252 19.1673 4.93742 19.1673 9.99992C19.1673 15.0624 15.0632 19.1666 10.0007 19.1666C4.93815 19.1666 0.833984 15.0624 0.833984 9.99992ZM10.0007 17.4999C9.01574 17.4999 8.04047 17.3059 7.13053 16.929C6.22058 16.5521 5.39379 15.9997 4.69735 15.3032C4.00091 14.6068 3.44846 13.78 3.07155 12.87C2.69464 11.9601 2.50065 10.9848 2.50065 9.99992C2.50065 9.01501 2.69464 8.03974 3.07155 7.12979C3.44846 6.21985 4.00091 5.39306 4.69735 4.69662C5.39379 4.00018 6.22058 3.44773 7.13053 3.07082C8.04047 2.69391 9.01574 2.49992 10.0007 2.49992C11.9898 2.49992 13.8974 3.29009 15.304 4.69662C16.7105 6.10314 17.5007 8.0108 17.5007 9.99992C17.5007 11.989 16.7105 13.8967 15.304 15.3032C13.8974 16.7097 11.9898 17.4999 10.0007 17.4999Z" fill="white"/>
</g>
<defs>
<clipPath id="clip0_2006_9518">
<rect width="20" height="20" fill="white"/>
</clipPath>
</defs>
</svg>
