<svg width="18" height="18" viewBox="0 0 18 18" fill="none" xmlns="http://www.w3.org/2000/svg">
<path d="M8.99935 13.1667C9.23546 13.1667 9.43352 13.0867 9.59352 12.9267C9.75352 12.7667 9.83324 12.569 9.83268 12.3334C9.83213 12.0979 9.75213 11.9001 9.59268 11.7401C9.43324 11.5801 9.23546 11.5001 8.99935 11.5001C8.76324 11.5001 8.56546 11.5801 8.40602 11.7401C8.24657 11.9001 8.16657 12.0979 8.16602 12.3334C8.16546 12.569 8.24546 12.767 8.40602 12.9276C8.56657 13.0881 8.76435 13.1679 8.99935 13.1667ZM8.16602 9.83342H9.83268V4.83342H8.16602V9.83342ZM8.99935 17.3334C7.84657 17.3334 6.76324 17.1145 5.74935 16.6767C4.73546 16.239 3.85352 15.6454 3.10352 14.8959C2.35352 14.1465 1.75991 13.2645 1.32268 12.2501C0.885461 11.2356 0.666572 10.1523 0.666017 9.00008C0.665461 7.84786 0.88435 6.76453 1.32268 5.75008C1.76102 4.73564 2.35463 3.85369 3.10352 3.10425C3.85241 2.3548 4.73435 1.76119 5.74935 1.32341C6.76435 0.885637 7.84768 0.666748 8.99935 0.666748C10.151 0.666748 11.2343 0.885637 12.2493 1.32341C13.2643 1.76119 14.1463 2.3548 14.8952 3.10425C15.6441 3.85369 16.238 4.73564 16.6768 5.75008C17.1157 6.76453 17.3344 7.84786 17.3327 9.00008C17.331 10.1523 17.1121 11.2356 16.676 12.2501C16.2399 13.2645 15.6463 14.1465 14.8952 14.8959C14.1441 15.6454 13.2621 16.2392 12.2493 16.6776C11.2366 17.1159 10.1532 17.3345 8.99935 17.3334ZM8.99935 15.6667C10.8605 15.6667 12.4368 15.0209 13.7285 13.7292C15.0202 12.4376 15.666 10.8612 15.666 9.00008C15.666 7.13897 15.0202 5.56258 13.7285 4.27091C12.4368 2.97925 10.8605 2.33341 8.99935 2.33341C7.13824 2.33341 5.56185 2.97925 4.27018 4.27091C2.97852 5.56258 2.33268 7.13897 2.33268 9.00008C2.33268 10.8612 2.97852 12.4376 4.27018 13.7292C5.56185 15.0209 7.13824 15.6667 8.99935 15.6667Z" fill="white"/>
</svg>
